/* XPM */
static char const* icon_xpm[] = {
"48 48 241 2",
"  	c None",
". 	c #257715",
"+ 	c #C1B44F",
"@ 	c #F8C932",
"# 	c #D4BB56",
"$ 	c #B1AE49",
"% 	c #999432",
"& 	c #999E37",
"* 	c #909B34",
"= 	c #7C8521",
"- 	c #7C9935",
"; 	c #6C932F",
"> 	c #4C8624",
", 	c #397C1A",
"' 	c #5A8422",
") 	c #FFCC66",
"! 	c #FFCC33",
"~ 	c #FFAE4C",
"{ 	c #FFC054",
"] 	c #FF9933",
"^ 	c #F6C863",
"/ 	c #ECC58E",
"( 	c #C7B62B",
"_ 	c #9BA541",
": 	c #4D8724",
"< 	c #C19E3C",
"[ 	c #FFCC99",
"} 	c #C4B550",
"| 	c #558321",
"1 	c #5B721F",
"2 	c #FDAE4C",
"3 	c #9D9F38",
"4 	c #277815",
"5 	c #A66A2C",
"6 	c #989D36",
"7 	c #2C7013",
"8 	c #C96633",
"9 	c #FEC054",
"0 	c #4F8220",
"a 	c #3D5D0D",
"b 	c #CC6633",
"c 	c #000000",
"d 	c #DCA543",
"e 	c #297917",
"f 	c #46550A",
"g 	c #4C4E08",
"h 	c #FCCB65",
"i 	c #488522",
"j 	c #4E4D08",
"k 	c #98672D",
"l 	c #231C0E",
"m 	c #050401",
"n 	c #9A7B3D",
"o 	c #C79F4F",
"p 	c #19140A",
"q 	c #96785A",
"r 	c #B18D46",
"s 	c #302613",
"t 	c #070502",
"u 	c #22170A",
"v 	c #83622B",
"w 	c #FBAB4A",
"x 	c #A8AA46",
"y 	c #174D0D",
"z 	c #071604",
"A 	c #010300",
"B 	c #030A01",
"C 	c #0D2A07",
"D 	c #226E13",
"E 	c #8B4522",
"F 	c #1C1308",
"G 	c #BD974B",
"H 	c #F2C130",
"I 	c #1C160B",
"J 	c #B27935",
"K 	c #AF7734",
"L 	c #BE984C",
"M 	c #C49C4E",
"N 	c #2E2412",
"O 	c #F5C462",
"P 	c #DB9541",
"Q 	c #463417",
"R 	c #855A27",
"S 	c #F4C862",
"T 	c #061303",
"U 	c #1B580F",
"V 	c #237114",
"W 	c #216A12",
"X 	c #0C2907",
"Y 	c #4D4D08",
"Z 	c #2E170B",
"` 	c #AE8B45",
" .	c #3B2811",
"..	c #94763B",
"+.	c #2D1E0D",
"@.	c #DCB058",
"#.	c #44361B",
"$.	c #CBA251",
"%.	c #E3AA4A",
"&.	c #24180A",
"*.	c #1D6010",
"=.	c #216C13",
"-.	c #020801",
";.	c #44570B",
">.	c #0D0603",
",.	c #EEA246",
"'.	c #EEBE5F",
").	c #110B05",
"!.	c #7F6532",
"~.	c #3A2E17",
"{.	c #F2A548",
"].	c #141008",
"^.	c #030201",
"/.	c #020100",
"(.	c #010000",
"_.	c #247614",
":.	c #346810",
"<.	c #BF984C",
"[.	c #161108",
"}.	c #B57B35",
"|.	c #080603",
"1.	c #E6B85C",
"2.	c #528220",
"3.	c #000100",
"4.	c #247514",
"5.	c #267615",
"6.	c #2B170A",
"7.	c #B07834",
"8.	c #AF8C46",
"9.	c #191107",
"0.	c #A78542",
"a.	c #3B2F17",
"b.	c #97783C",
"c.	c #788C2A",
"d.	c #040F02",
"e.	c #1A550F",
"f.	c #524B18",
"g.	c #1E1408",
"h.	c #F3C230",
"i.	c #1E180C",
"j.	c #D5913F",
"k.	c #1D170B",
"l.	c #98793C",
"m.	c #BC964B",
"n.	c #120E07",
"o.	c #A08040",
"p.	c #ECBC5E",
"q.	c #F4A648",
"r.	c #BC8D3D",
"s.	c #4A3216",
"t.	c #9D9533",
"u.	c #19500E",
"v.	c #317617",
"w.	c #95662C",
"x.	c #040300",
"y.	c #DFB259",
"z.	c #241C0E",
"A.	c #886C51",
"B.	c #C0994C",
"C.	c #41341A",
"D.	c #0B0804",
"E.	c #090602",
"F.	c #413015",
"G.	c #BC8038",
"H.	c #AD9937",
"I.	c #CDA13F",
"J.	c #6D8927",
"K.	c #868F2D",
"L.	c #297816",
"M.	c #E1C05B",
"N.	c #FBAD4B",
"O.	c #40811F",
"P.	c #7A9834",
"Q.	c #A89836",
"R.	c #267715",
"S.	c #C9B72C",
"T.	c #F9CA64",
"U.	c #3E7D1B",
"V.	c #5A8C1C",
"W.	c #FBCA64",
"X.	c #9FA742",
"Y.	c #809A37",
"Z.	c #F1AB49",
"`.	c #367E1B",
" +	c #98A440",
".+	c #7E8D2B",
"++	c #19520E",
"@+	c #071704",
"#+	c #0F1005",
"$+	c #967332",
"%+	c #23170A",
"&+	c #050402",
"*+	c #9A7B5C",
"=+	c #A58442",
"-+	c #31210E",
";+	c #0E0E05",
">+	c #1A540E",
",+	c #030B02",
"'+	c #19530E",
")+	c #1F6612",
"!+	c #172E0A",
"~+	c #CDAF45",
"{+	c #BD8038",
"]+	c #F2C160",
"^+	c #1C1610",
"/+	c #B28E23",
"(+	c #2A2110",
"_+	c #AA7C33",
":+	c #688828",
"<+	c #081A04",
"[+	c #184F0E",
"}+	c #64811E",
"|+	c #2F2A13",
"1+	c #AE8B68",
"2+	c #3B2F0B",
"3+	c #F1C761",
"4+	c #566E1F",
"5+	c #2D7A17",
"6+	c #010400",
"7+	c #020701",
"8+	c #307418",
"9+	c #769733",
"0+	c #8B9F3B",
"a+	c #81944D",
"b+	c #090A02",
"c+	c #69922E",
"d+	c #226F13",
"e+	c #091D05",
"f+	c #18500E",
"g+	c #081B04",
"h+	c #19510E",
"i+	c #1B590F",
"j+	c #030C02",
"k+	c #0D2B07",
"l+	c #040E02",
"m+	c #061603",
"n+	c #000200",
"o+	c #16490C",
"p+	c #15460C",
"q+	c #051002",
"r+	c #16470C",
". . . . . . . . . . . . . . . . . . . . . . . . . . . . . . . . . . . . . . . . . . . . . . . . ",
". . . . . . . . . . . . . . . . . . . . . . . . . . . . . . . . . . . . . . . . . . . . . . . . ",
". . . . . . . . . . . . . . . . . . . . . . . . . . . . . . . . . . . . . . . . . . . . . . . . ",
". . . . . . . . . . . . . . . . . . . . . . . . . . . . . . . . . . . . . . . . . . . . . . . . ",
". . . . . . . . . . . . . . . . . . . . . . . . . . . . . . . . . . . . . . . . . . . . . . . . ",
". . . . . . . . . . . . . . . . . . . . . . . . . . . . . . . . . . . . . . . . . . . . . . . . ",
". . . . . . . . . . . . . . . . . . . . . . . . . . . . . . . . . . . . . . . . . . . . . . . . ",
". . . . . . . . . . . . . . . . . . . . . . . . . . . . . . . . . . . . . . . . . . . . . . . . ",
". . . . . . . . . . . . . . . . . . . . . . . . . . . . . . . . . . . . . . . . . . . . . . . . ",
". . . . . . . . . . . . + @ # $ % & * = - ; > , . . . . . . . . . . . . . . . . . . . . . . . . ",
". . . . . . . . . . . ' ) ! ) ) ~ { { ] ) ) ) ~ ^ / ( _ : . . . . . . . . . . . . . . . . . . . ",
". . . . . . . . . . . < ) ! ) ) ~ { { ] ) ) ) ~ ) [ ! ) ) } | . . . . . . . . . . . . . . . . . ",
". . . . . . . . . . 1 ~ ) ! ) ) ~ { { ] ) ) ) ~ ) [ ! ) ) ) 2 3 4 . . . . . . . . . . . . . . . ",
". . . . . . . . . . 5 ~ ) ! ) ) ~ { { ] ) ) ~ ) ) [ ! ) ) ) ~ { 6 . . . . . . . . . . . . . . . ",
". . . . . . . . . 7 8 ~ ) ! ) ) ~ { { ] ) ) ~ ) ) [ ! ) ) ) ~ { 9 0 . . . . . . . . . . . . . . ",
". . . . . . . . . a b ~ ) ! ) ) ~ { { c ) ) ~ ) ) [ ! ) ) ) ~ { { d e . . . . . . . . . . . . . ",
". . . . . c . . . f b ~ ) ! ) ) ~ { { c ) ) ~ ) ) [ ! ) ) ) ) ~ { ~ _ . . . . . . . . . . . . . ",
". . . . . c . . . g b ~ ) ! ) ) ~ { { c ) ) ~ ) ) [ ! ) ) ) ) ~ { ~ h i . . . . . . . . . . . . ",
". . . . c c c c c j b k l m l n ~ { { c ) ) ~ o p q ! ) r s t u v w ) x c y z A B C D . . . . . ",
". . . . . c . . . j E F G H G I J { { c ) ) K I L [ ! M N M O P Q R ) S c T U V W C X . . . . . ",
". . . . . c . . . Y Z K ) ! ) `  .{ { c ) ..+.@.) [ ! #.$.) ) ~ %.&.) ) c *.. . . =.-.. . . . . ",
". . . . . c . . . ;.>.,.) ! ) '.).{ { c !.~.{.) ) [ ! ].^.^./.(.c /.) ) c _.. . . . c . . . . . ",
". . . . . c . . . :.>.,.) ! ) '.).{ { c <.[.}.) ) [ ! |.1.) ) ~ { ~ ) ) c 2.. . . . c . . . . . ",
". . . . . 3.4.. . 5.6.7.) ! ) 8. .{ { c ) $.9.0.) [ ! a.b.) ) ~ { ~ ) ) c c.. . . . c . . . . . ",
". . . . . d.e._.. . f.g.<.h.<.i.J { { c ) ) j.k.l.[ ! m.n.o.p.q.r.s.) ) c t.. . . . c . . . . . ",
". . . . . u.d.3.c . v.w.l x.l n ~ { { c ) ) ~ y.z.A.! ) B.C.D.E.F.G.) ) c H.. . . . c . . . . . ",
". . . . . . . . . . . I.) ! ) ) ~ { { ] ) ) ~ ) ) [ ! ) ) ) ) ~ { ~ ) ) ) H.. . . . . . . . . . ",
". . . . . . . . . . . J.) ! ) ) ~ { { ] ) ) ~ ) ) [ ! ) ) ) ) ~ { ~ ) ) ) K.. . . . . . . . . . ",
". . . . . . . . . . . L.M.! ) ) ~ { { ] ) ) ~ ) ) [ ! ) ) ) ) ~ { ~ ) ) N.O.. . . . . . . . . . ",
". . . . . . . . . . . . P.! ) ) ~ { { ] ) ) ~ ) ) [ ! ) ) ) ) ~ { ~ ) ) Q.. . . . . . . . . . . ",
". . . . . . . . . . . . R.S.) ) ~ { { ] ) ) ~ ) ) [ ! ) ) ) ) ~ { { ~ T.U.. . . . . . . . . . . ",
". . . . . . . . . c . . . V.W.) ~ { { ] ) ) ~ ) ) [ ! ) ) ) ) ~ { { ~ X.. . . . . . . . . . . . ",
". . . . . . . . . c . . . . Y.) ~ { { ] ) ) ~ ) ) [ ! ) ) ) ) ~ { { Z.`.. . . . . . . . . . . . ",
". . . . . . . . . . . . . . .  +~ { { ] ) ) ~ ) ) [ ! ) ) ) ) ~ { { .+. . . . . . . . . . . . . ",
". . . . . . . . . c . . . ++@+A #+$+{ ] ) l.%+&+l *+! ) ) c =+-+t ;+C D . . . . . . . . . . . . ",
". . . . . . . . . c . . >+,+'+V )+!+~+] ` I {+]+G ^+/+) ) c (+_+:+W C X . . . . . . . . . . . . ",
". . . . . . . . . c . . <+[+. . . . 4 }+|+8.~ ) ) 1+2+) 3+c 4+5+. . =.-.. . . . . . . . . . . . ",
". . . . . . . . . c . . 6+D . . . . . . 7+8+0 9+0+a+b+c+e c _.. . . . c . . . . . . . . . . . . ",
". . . . . . . . . c . . -.D . . . . . . 7+d+. . . d+7+. . c . . . . . c . . . . . . . . . . . . ",
". . . . . . . . . c . . e+f+. . . . . . g+++. . . h+g+. . c . . . . . c . . . . . . . . . . . . ",
". . . . . . . . . c . . i+j+>+V )+k+. . h+l+i+V i+l+'+. . c . . . . . c . . . . . . . . . . . . ",
". . . . . . . . . c . . . u.m+n+l+o+. . . p+q+3.q+r+. . . c . . . . . c . . . . . . . . . . . . ",
". . . . . . . . . . . . . . . . . . . . . . . . . . . . . . . . . . . . . . . . . . . . . . . . ",
". . . . . . . . . . . . . . . . . . . . . . . . . . . . . . . . . . . . . . . . . . . . . . . . ",
". . . . . . . . . . . . . . . . . . . . . . . . . . . . . . . . . . . . . . . . . . . . . . . . ",
". . . . . . . . . . . . . . . . . . . . . . . . . . . . . . . . . . . . . . . . . . . . . . . . ",
". . . . . . . . . . . . . . . . . . . . . . . . . . . . . . . . . . . . . . . . . . . . . . . . ",
". . . . . . . . . . . . . . . . . . . . . . . . . . . . . . . . . . . . . . . . . . . . . . . . "};
