/* XPM */
static char const* icon_48_48_xpm[] = {
"48 48 470 2",
"  	c None",
". 	c #E1752A",
"+ 	c #E07327",
"@ 	c #DF6D1E",
"# 	c #DE6A1A",
"$ 	c #E26C1A",
"% 	c #E56D1B",
"& 	c #BF5D18",
"* 	c #E06B1A",
"= 	c #DF6B1A",
"- 	c #D6671A",
"; 	c #8F4715",
"> 	c #13100E",
", 	c #BA5A18",
"' 	c #E46D1A",
") 	c #B35717",
"! 	c #21170E",
"~ 	c #17120E",
"{ 	c #CB6119",
"] 	c #DF6A1A",
"^ 	c #A85217",
"/ 	c #4A2911",
"( 	c #060B0C",
"_ 	c #070B0C",
": 	c #9D4D16",
"< 	c #D3651A",
"[ 	c #552E12",
"} 	c #0B0D0D",
"| 	c #100F0D",
"1 	c #2D1C0F",
"2 	c #EB701B",
"3 	c #E36C1A",
"4 	c #964A16",
"5 	c #15110D",
"6 	c #0E0E0D",
"7 	c #A15017",
"8 	c #E66E1A",
"9 	c #914815",
"0 	c #0A0C0D",
"a 	c #16120D",
"b 	c #CC6219",
"c 	c #B85918",
"d 	c #B15617",
"e 	c #D06419",
"f 	c #8C4615",
"g 	c #DB691A",
"h 	c #8A4515",
"i 	c #080C0C",
"j 	c #0F0F0D",
"k 	c #2C1C0F",
"l 	c #A45016",
"m 	c #0C0E0D",
"n 	c #1E150E",
"o 	c #E26C1B",
"p 	c #1D150E",
"q 	c #2F281D",
"r 	c #5D3011",
"s 	c #E16B1A",
"t 	c #AF5617",
"u 	c #AC5417",
"v 	c #E76E1B",
"w 	c #23180F",
"x 	c #060B0D",
"y 	c #ED711B",
"z 	c #894313",
"A 	c #604D33",
"B 	c #CD9D61",
"C 	c #473420",
"D 	c #CF6319",
"E 	c #0C0D0D",
"F 	c #23170E",
"G 	c #D16419",
"H 	c #040A0C",
"I 	c #0A0D0E",
"J 	c #E96F1B",
"K 	c #42230D",
"L 	c #BB905A",
"M 	c #C1955C",
"N 	c #443928",
"O 	c #CA6219",
"P 	c #763C14",
"Q 	c #482811",
"R 	c #9E4E16",
"S 	c #080B0C",
"T 	c #28190F",
"U 	c #9B4E19",
"V 	c #58331C",
"W 	c #A07C4D",
"X 	c #C99B5F",
"Y 	c #665337",
"Z 	c #9B4C16",
"` 	c #EA6F1B",
" .	c #2B1B0F",
"..	c #19130E",
"+.	c #11100D",
"@.	c #4E2B11",
"#.	c #773D14",
"$.	c #0E0E0C",
"%.	c #080909",
"&.	c #1C1812",
"*.	c #604D32",
"=.	c #673512",
"-.	c #EE711B",
";.	c #0E0F0D",
">.	c #18130E",
",.	c #E06B1B",
"'.	c #432510",
").	c #3B2210",
"!.	c #914816",
"~.	c #17120D",
"{.	c #12100E",
"].	c #2A1A0E",
"^.	c #13100D",
"/.	c #9B4D16",
"(.	c #683612",
"_.	c #24180E",
":.	c #E46C1A",
"<.	c #5C3112",
"[.	c #090C0D",
"}.	c #D8671A",
"|.	c #12100D",
"1.	c #C96119",
"2.	c #854314",
"3.	c #E66E1B",
"4.	c #0A0D0D",
"5.	c #20160E",
"6.	c #854315",
"7.	c #A25017",
"8.	c #6B3713",
"9.	c #B25618",
"0.	c #502C11",
"a.	c #1E160F",
"b.	c #E46C1B",
"c.	c #050A0C",
"d.	c #CB6219",
"e.	c #683613",
"f.	c #C86019",
"g.	c #4D2A11",
"h.	c #512C11",
"i.	c #633313",
"j.	c #834214",
"k.	c #B75A19",
"l.	c #0F0F0E",
"m.	c #0D0E0D",
"n.	c #592F12",
"o.	c #EF721B",
"p.	c #281A0E",
"q.	c #323130",
"r.	c #3A3937",
"s.	c #0F0E0D",
"t.	c #904715",
"u.	c #AE5517",
"v.	c #C66019",
"w.	c #2F1C0F",
"x.	c #542E12",
"y.	c #CE6319",
"z.	c #0D0F0F",
"A.	c #D8D8D7",
"B.	c #ADADAC",
"C.	c #DC691A",
"D.	c #22170E",
"E.	c #B55818",
"F.	c #DD6A1A",
"G.	c #613819",
"H.	c #252017",
"I.	c #5E3112",
"J.	c #0F1112",
"K.	c #F2F2F2",
"L.	c #838281",
"M.	c #1C140E",
"N.	c #DA691A",
"O.	c #351F10",
"P.	c #110F0D",
"Q.	c #6B3E1B",
"R.	c #0A0B0B",
"S.	c #2E1C0F",
"T.	c #3C3D3B",
"U.	c #070909",
"V.	c #532C11",
"W.	c #E66D1A",
"X.	c #C45E18",
"Y.	c #E16C1A",
"Z.	c #6D3813",
"`.	c #653412",
" +	c #E56D1A",
".+	c #C15E19",
"++	c #03090C",
"@+	c #B95A17",
"#+	c #1A130E",
"$+	c #412510",
"%+	c #DD691A",
"&+	c #C55F19",
"*+	c #E86F1B",
"=+	c #C76019",
"-+	c #C25F1A",
";+	c #B65A1B",
">+	c #DE6919",
",+	c #DE6A1B",
"'+	c #DB6E1F",
")+	c #DF6817",
"!+	c #EA6C17",
"~+	c #4E280E",
"{+	c #040608",
"]+	c #0E0D0C",
"^+	c #964B16",
"/+	c #B4591B",
"(+	c #85461D",
"_+	c #CC631B",
":+	c #DA7124",
"<+	c #D87328",
"[+	c #DA7023",
"}+	c #DF6919",
"|+	c #DE6A19",
"1+	c #D4661A",
"2+	c #DB6E21",
"3+	c #D07D38",
"4+	c #C98646",
"5+	c #C1894F",
"6+	c #B58C57",
"7+	c #977549",
"8+	c #513F2A",
"9+	c #191611",
"0+	c #442610",
"a+	c #D7681B",
"b+	c #B45B1E",
"c+	c #D6762C",
"d+	c #C19157",
"e+	c #CA8545",
"f+	c #D47830",
"g+	c #DD6B1B",
"h+	c #E26B1A",
"i+	c #C25F1B",
"j+	c #78411E",
"k+	c #DC6D1F",
"l+	c #C0894E",
"m+	c #C2965D",
"n+	c #BF935B",
"o+	c #BD925B",
"p+	c #271D14",
"q+	c #B75D1E",
"r+	c #CE641C",
"s+	c #DF6918",
"t+	c #E06A19",
"u+	c #DA681A",
"v+	c #4C301F",
"w+	c #452D1F",
"x+	c #6C3C1E",
"y+	c #8B491D",
"z+	c #D8681A",
"A+	c #934C1D",
"B+	c #683B1E",
"C+	c #E86E1A",
"D+	c #D16216",
"E+	c #3A3021",
"F+	c #896A43",
"G+	c #C5975E",
"H+	c #896D46",
"I+	c #A95317",
"J+	c #CC641C",
"K+	c #6A4023",
"L+	c #6C4123",
"M+	c #7E4823",
"N+	c #D1651A",
"O+	c #AB551C",
"P+	c #37271F",
"Q+	c #231F20",
"R+	c #201E20",
"S+	c #482F1F",
"T+	c #7B421D",
"U+	c #5D361F",
"V+	c #472811",
"W+	c #0C0C0B",
"X+	c #3B3021",
"Y+	c #BB925B",
"Z+	c #5A3012",
"`+	c #D0661C",
" @	c #835530",
".@	c #734425",
"+@	c #6C3F21",
"@@	c #CE651C",
"#@	c #89481D",
"$@	c #4D301E",
"%@	c #36271F",
"&@	c #2B2220",
"*@	c #211E20",
"=@	c #78411D",
"-@	c #D1651B",
";@	c #5B361F",
">@	c #54331F",
",@	c #733B13",
"'@	c #0D0D0C",
")@	c #614C32",
"!@	c #5B3D20",
"~@	c #B05C21",
"{@	c #C0945C",
"]@	c #C89B60",
"^@	c #745A3D",
"/@	c #1F1E20",
"(@	c #1D1D20",
"_@	c #221E20",
":@	c #1C1C20",
"<@	c #6F3E1E",
"[@	c #482E1F",
"}@	c #9F511C",
"|@	c #14120F",
"1@	c #56422B",
"2@	c #1E1D21",
"3@	c #B08653",
"4@	c #7B6040",
"5@	c #201D1F",
"6@	c #282120",
"7@	c #2D2320",
"8@	c #4D301F",
"9@	c #693B1E",
"0@	c #954D1D",
"a@	c #A6541D",
"b@	c #A1521C",
"c@	c #362720",
"d@	c #DD6D1D",
"e@	c #B2591C",
"f@	c #181B21",
"g@	c #924D1E",
"h@	c #68452B",
"i@	c #3A3129",
"j@	c #A8551C",
"k@	c #CB631B",
"l@	c #56341F",
"m@	c #462D1F",
"n@	c #693C1E",
"o@	c #B0581C",
"p@	c #E76E1A",
"q@	c #6D3C1D",
"r@	c #9C501C",
"s@	c #D9681A",
"t@	c #814E28",
"u@	c #CA641E",
"v@	c #673A1E",
"w@	c #733F1E",
"x@	c #914B1D",
"y@	c #1B1C20",
"z@	c #1E1D20",
"A@	c #252020",
"B@	c #1A1B20",
"C@	c #4B2F1F",
"D@	c #AC561C",
"E@	c #C5601B",
"F@	c #663A1E",
"G@	c #562E12",
"H@	c #D3661A",
"I@	c #332520",
"J@	c #9B4F1C",
"K@	c #B1581C",
"L@	c #9E511C",
"M@	c #703E1E",
"N@	c #6E3813",
"O@	c #C9621B",
"P@	c #332620",
"Q@	c #AD571C",
"R@	c #86461D",
"S@	c #191B20",
"T@	c #914B1C",
"U@	c #E46A17",
"V@	c #D8762C",
"W@	c #CB8443",
"X@	c #C68A4D",
"Y@	c #C58B4E",
"Z@	c #C68A4C",
"`@	c #D47C35",
" #	c #DE6B1B",
".#	c #A9551C",
"+#	c #D7671A",
"@#	c #663513",
"##	c #C6601B",
"$#	c #723F1E",
"%#	c #CA621B",
"&#	c #CD631B",
"*#	c #8C491D",
"=#	c #402B1F",
"-#	c #DE6C1C",
";#	c #C28F56",
">#	c #BE955E",
",#	c #BE945D",
"'#	c #C98848",
")#	c #DB7124",
"!#	c #C15E1B",
"~#	c #462711",
"{#	c #C15E18",
"]#	c #904B1D",
"^#	c #6F3C1C",
"/#	c #BF945C",
"(#	c #C7884A",
"_#	c #6D3913",
":#	c #D8681B",
"<#	c #B95B1C",
"[#	c #65381C",
"}#	c #C0925A",
"|#	c #C48D51",
"1#	c #B45A1C",
"2#	c #5E371F",
"3#	c #EA6F1A",
"4#	c #703C1C",
"5#	c #C58B4D",
"6#	c #BF935C",
"7#	c #CC8340",
"8#	c #B25717",
"9#	c #924816",
"0#	c #4F311F",
"a#	c #A5531C",
"b#	c #CD6319",
"c#	c #BE955D",
"d#	c #CD813D",
"e#	c #DD6B1C",
"f#	c #8D4615",
"g#	c #4F2B11",
"h#	c #CB621B",
"i#	c #A4531C",
"j#	c #954D1C",
"k#	c #B85B1B",
"l#	c #D5661A",
"m#	c #CC8241",
"n#	c #C38E54",
"o#	c #BD955E",
"p#	c #C28F55",
"q#	c #DB6E20",
"r#	c #D77429",
"s#	c #D97226",
"t#	c #6E3913",
"u#	c #984C16",
"v#	c #743F1D",
"w#	c #362620",
"x#	c #CD631A",
"y#	c #DB681A",
"z#	c #DD6818",
"A#	c #D6752C",
"B#	c #C88748",
"C#	c #D26519",
"D#	c #994C16",
"E#	c #2C1B0F",
"F#	c #E16B1B",
"G#	c #B65A1C",
"H#	c #221F20",
"I#	c #934C1C",
"J#	c #6D3D1E",
"K#	c #2F2420",
"L#	c #3C291F",
"M#	c #E56C19",
"N#	c #E46C19",
"O#	c #DC7326",
"P#	c #B95A18",
"Q#	c #02090C",
"R#	c #9D4E16",
"S#	c #57331F",
"T#	c #181A20",
"U#	c #52321F",
"V#	c #1D1C20",
"W#	c #60381F",
"X#	c #75401D",
"Y#	c #BC5C1B",
"Z#	c #723A14",
"`#	c #B55817",
" $	c #BB5C1C",
".$	c #5E361E",
"+$	c #242020",
"@$	c #372720",
"#$	c #5C361E",
"$$	c #743F1E",
"%$	c #8F4A1D",
"&$	c #B3591C",
"*$	c #CE641A",
"=$	c #D2651A",
". + + + + + + + + + + + + + + + + + + + + + + + + + + + + + + + + + + + + + + + + + + + + + + + ",
"@ # # # # # # # # # # # # # # # # # # # # # # # # # # # # # # # # # # # # # # # # # # # # # # # ",
"@ # # # # # # # # # # # # # # # # # # # # # # # # # # # # # # # # # # # # # $ % & * # # # # # # ",
"@ # # # # # # # # # # # # # # # # # # # # # # # # # # # # # # # # # # # = - ; > , # # # # # # # ",
"@ # # # # # # # # # # # # # # # # # # # # # # # # # # # # # # # # # # ' ) ! ~ { ] # # # # # # # ",
"@ # # # # # # # # # # # # # # # # # # # # # # # # # # # # # # # # ' ^ / ( _ : # # # # # # # # # ",
"@ # # # # # # # # # # # # # # # # # # # # # # # # # # # # # # ] < [ } | | 1 2 # # # # # # # # # ",
"@ # # # # # # # # # # # # # # # # # # # # # # # # # # # # # 3 4 5 6 | | | 7 = # # # # # # # # # ",
"@ # # # # # # # # # # # # # # # # * * # # # ] $ # # # # # 8 9 0 | | | | a b # # # # # # # # # # ",
"@ # # # # # # # # # # # # # # # = c d * # # e f g # # # # h i | | | | j k $ # # # # # # # # # # ",
"@ # # # # # # # # # # # # # # # l m n 2 # o p q r s # s t | | | | | | ( u * # # # # # # # # # # ",
"@ # # # # # # # # # # # # # # v w | x y # z A B C v # D E | | | | | | F v # # # # # # # # # # # ",
"@ # # # # # # # # # # # # # # G H | I J ] K L M N O s P | | | | | | | Q s # # # # # # # # # # # ",
"@ # # # # # # # # # # # # # ] R S | T U V n W X Y Z `  .| | ..+.| | | @.* # # # # # # # # # # # ",
"@ # # # # # # # # # # # # # $ #.} | 6 i $.| %.&.*.=.-.;.| >.,.'.6 | | ).$ # # # # # # # # # # # ",
"@ # # # # # # # # # # # # 8 !.~.| | | | | | | | {.].y ^.| /.3 (.E | | _.:.# # # # # # # # # # # ",
"@ # # # # # # # # # # # * <.i | | | | | | [._ } | ..}.k |.1.s 2.0 | | 6 3.# # # # # # # # # # # ",
"@ # # # # # # # # # # # $ 4.| | j 5.| | j 6.7.8.p 6 9.0.a.b.* : [.| | c.d.] # # # # # # # # # # ",
"@ # # # # # # # # # # $ f [.| E e./.E | 6 f.= * g g.h.#.i.3 * u S | | 0 j.s # # # # # # # # # # ",
"@ # # # # # # # # # * k.l.| m.n.o.p.q.r.s.c # # # }.p t.u.* ] v.( | | j w.3 # # # # # # # # # # ",
"@ # # # # # # # # # g 5 | m.x.# y.z.A.B.s., # # # C.D.E.* # # ' 6 | | | >.< # # # # # # # # # # ",
"@ # # # F.# # # # # G.H.| I.3 # - J.K.L.E y.# # # # M.N.# # # s O.| | | P.E.# # # # # # # # # # ",
"@ # # # # # # # # # Q.R._.F.# # v S.T.U.V.W.# # # # X.Y.# # # # Z.j | | j `. +# # # # # # # # # ",
"@ # # # # # # # # # .+++@+= # # # < #+$+%+# # # # # # # # # # # &+_ | | | m *+# # # # # # # # # ",
"@ # # # # # # # # # * =+-+= ;+>+>+# # 3 # # # # # # # # # ,+'+)+!+~+{+%.]+[.^+# # # # # # # # # ",
"@ # # # # # # # # # # * /+(+_+:+<+[+# }+|+# # # # # # 1+s # 2+3+4+5+6+7+8+9+0+# # # # # # # # # ",
"@ # # # # # # # # # # # # a+b+# # c+d+e+f+g+s h+] # # i+j+3 # # ,+k+l+m+n+o+p+] # # # # # # # # ",
"@ # # # # # # # # # # ] ,+q+r+# # >+s+,+t+u+v+w+x+y+z+3 A+B+C+# # # D+E+F+G+H+I+* # # # # # # # ",
"@ # # # # # # # # # # J+K+L+M+a+= * C.N+O+P+Q+Q+Q+R+S+W.] T+U+C.# # 3 V+W+X+Y+Z+' # # # # # # # ",
"@ # # # # # # # # # # `+ @.@+@@@#@$@%@&@*@Q+Q+Q+Q+Q+=@-@# :.;@>@ +# = ,@| '@)@!@:.# # # # # # # ",
"@ # # # # # # # # # s ~@{@]@^@/@(@_@Q+*@R+(@:@:@*@<@s ] # # - [@}@] # R 6 | |@1@3 # # # # # # # ",
"@ # # # # # # # # # s 2@3@4@5@Q+Q+6@7@8@9@0@a@b@z+* # # # # #  +c@' # 1.0 | | s.d@# # # # # # # ",
"@ # # # # # # # # # e@f@g@h@i@6@j@k@]  += y+l@w+m@n@o@p@W.] # # q@r@] v #+j | | s@# # # # # # # ",
"@ # # # # # # # # # >+t@o@u@v@w@= # 3 x@y@:@:@z@6@A@B@6@C@D@h+# E@F@*  +G@6 | | - # # # # # # # ",
"@ # # # # # # # # # # # # # H@I@x@# J@:@Q+C@K@# ] ] ] ] N.L@i+# W.M@# ' N@m.| | C.# # # # # # # ",
"@ # # # # # # # # # # # # # O@P@Q@s R@S@T@U@V@W@X@Y@Z@Z@e+`@ #)+s .#+#' @#m.6 $+ +# # # # # # # ",
"@ # # # # # # # # # # # # # ##$#%#&#*#=#-#;#>#n+n+n+n+n+n+,#>#'#)#!#C.8 ~#6 m.{#= # # # # # # # ",
"@ # # # # # # # # # # # # # &##@3 u+]#^#4+/#n+n+n+n+n+n+n+n+n+n+(#s+# J >.m._## # # # # # # # # ",
"@ # # # # # # # # # # # # # F.m@:## <#[#}#n+n+n+n+n+n+n+n+n+n+n+|#)+# - [.+.= # # # # # # # # # ",
"@ # # # # # # # # # # # # # ] 1#2#* 3#4#5#6#n+n+n+n+n+n+n+n+n+6#7#}+# 8#} 9#s # # # # # # # # # ",
"@ # # # # # # # # # # # # # # 3 0#a#s b#3+,#n+n+n+n+>#c#,#,#6#d#e## # f#g#* # # # # # # # # # # ",
"@ # # # # # # # # # # # :.h#i#j#k#x+l#] # m#n#o#>#p#q#[+r#s## s+s v y.t#u## # # # # # # # # # # ",
"@ # # # # # # # # # # = v#B@R+*@w#C.x#N+- y#z#|+A#B#<+# # # u+C#D#E#[.| F## # # # # # # # # # # ",
"@ # # # # # # # # # # G#H#Q+*@I#J#K#R+H#K#L#C@* M#N#O#>+# # P#5 E j Q#R#] # # # # # # # # # # # ",
"@ # # # # # # # # # W.S#:@T#2#U#Q+Q+Q+H#R+/@V#6@0#W#X#Y## # $ Z#6 S.`#' # # # # # # # # # # # # ",
"@ # # # # # # # # # # C. $-  $.$+$A@A@@$#$$$%$&$- s s z+# # # # s * # # # # # # # # # # # # # # ",
"@ # # # # # # # # # # # = # # *$h#=$#  +3 $ s * # # # # # # # # # # # # # # # # # # # # # # # # ",
"@ # # # # # # # # # # # # # # # # # # # # # # # # # # # # # # # # # # # # # # # # # # # # # # # "};
