/* XPM */
static char const* const tick_xpm[] = {
"19 14 3 1",
" 	c None",
".	c #FFFFFF",
"+	c #191919",
"...................",
"...................",
"..............++...",
".............++....",
"............++.....",
"...........++......",
"..........++.......",
".........++........",
"........++.........",
"..++...++..........",
"...++.++...........",
"....+++............",
".....+.............",
"..................."};
