/* XPM */
static char const* const tick_xpm[] = {
"19 14 2 1",
" 	c #FFFFFF",
".	c #000000",
"                   ",
"                   ",
"              ..   ",
"             ..    ",
"            ..     ",
"           ..      ",
"          ..       ",
"         ..        ",
"        ..         ",
"       ..          ",
" ..   ..           ",
"  .. ..            ",
"   ...             ",
"    .              "};
