/* XPM */
static char const* const tick_xpm[] = {
"19 14 45 1",
" 	c #FFFFFF",
".	c #FBFDFB",
"+	c #F5FAF4",
"@	c #FEFFFE",
"#	c #EFF8ED",
"$	c #BBE1B4",
"%	c #7EC670",
"&	c #D1EBCC",
"*	c #F3FAF2",
"=	c #D5EDD0",
"-	c #86CA78",
";	c #B8E0B0",
">	c #E4F3E2",
",	c #AADAA1",
"'	c #9BD390",
")	c #EFF8EE",
"!	c #D4ECCF",
"~	c #97D18B",
"{	c #C4E5BE",
"]	c #CBE8C5",
"^	c #9AD38E",
"/	c #DCF0D7",
"(	c #9AD38F",
"_	c #E3F3E0",
":	c #98D18C",
"<	c #E2F2DF",
"[	c #BFE3B7",
"}	c #DFF1DC",
"|	c #96D08A",
"1	c #DDF0DA",
"2	c #B6DFAE",
"3	c #8BCB7E",
"4	c #EDF7EB",
"5	c #A3D79A",
"6	c #CBE8C6",
"7	c #F7FBF6",
"8	c #82C872",
"9	c #EDF7EA",
"0	c #C0E4B9",
"a	c #A5D79A",
"b	c #FDFEFD",
"c	c #DEF0D9",
"d	c #73C162",
"e	c #93CF86",
"f	c #FCFEFC",
"                   ",
"               .+. ",
"             @#$%&@",
"            *=-;   ",
"           >,')    ",
"          !~{      ",
"         ]^/       ",
"        ](_        ",
"       !:<         ",
"@[    }|1          ",
"@23  456           ",
" 7]890a            ",
"  bcde             ",
"    fb             "};
